<svg xmlns="http://www.w3.org/2000/svg" viewBox="0 0 64 64">
  <!-- Genet Ethiopian Market — tibeb diamond monogram favicon -->
  <rect width="64" height="64" rx="12" fill="#0C1912"/>
  <g stroke="#C9A24B" fill="none">
    <path d="M32 8 L56 32 L32 56 L8 32 Z" stroke-width="2"/>
    <path d="M32 15.5 L48.5 32 L32 48.5 L15.5 32 Z" stroke-width="1.1"/>
  </g>
  <g fill="#C9A24B">
    <path d="M32 5 l3 3 -3 3 -3 -3 Z"/>
    <path d="M59 32 l-3 3 -3 -3 3 -3 Z"/>
    <path d="M32 59 l-3 -3 3 -3 3 3 Z"/>
    <path d="M5 32 l3 -3 3 3 -3 3 Z"/>
    <path d="M20 18 l2 2 -2 2 -2 -2 Z"/>
    <path d="M44 18 l2 2 -2 2 -2 -2 Z"/>
    <path d="M44 42 l2 2 -2 2 -2 -2 Z"/>
    <path d="M20 42 l2 2 -2 2 -2 -2 Z"/>
  </g>
  <text x="32" y="33" text-anchor="middle" dominant-baseline="central" font-size="20" font-family="Georgia, 'Playfair Display', 'Times New Roman', serif" fill="#C9A24B">G</text>
</svg>
